<?xml version="1.0" encoding="UTF-8" standalone="no"?><!DOCTYPE svg PUBLIC "-//W3C//DTD SVG 1.1//EN" "http://www.w3.org/Graphics/SVG/1.1/DTD/svg11.dtd"><svg width="100%" height="100%" viewBox="0 0 2052 2050" version="1.1" xmlns="http://www.w3.org/2000/svg" xmlns:xlink="http://www.w3.org/1999/xlink" xml:space="preserve" xmlns:serif="http://www.serif.com/" style="fill-rule:evenodd;clip-rule:evenodd;stroke-linejoin:round;stroke-miterlimit:2;"><g><ellipse id="Sun" cx="807.316" cy="1136.88" rx="287.494" ry="280.828" style="fill:#ffd951;"/><path d="M1330.19,1143.72c-30.223,2.49 -151.009,1.324 -181.179,-1.749c-8.685,-0.884 -8.539,-15.971 0.161,-16.688c30.224,-2.49 151.01,-1.324 181.179,1.749c8.686,0.884 8.54,15.971 -0.161,16.688Z" style="fill:#ffd951;"/><path d="M1281.55,957.042c-25.469,11.821 -131.005,48.601 -158.305,55.169c-7.859,1.891 -12.824,-12.357 -5.492,-15.76c25.469,-11.821 131.006,-48.6 158.305,-55.168c7.859,-1.891 12.824,12.356 5.492,15.759Z" style="fill:#ffd951;"/><path d="M1145.6,807.486c-16.549,17.306 -89.838,77.955 -109.934,90.974c-5.785,3.748 -15.404,-7.875 -10.64,-12.857c16.549,-17.305 89.839,-77.955 109.934,-90.974c5.785,-3.748 15.404,7.876 10.64,12.857Z" style="fill:#ffd951;"/><path d="M957.703,658.66c-7.965,27.319 -50.151,132.453 -63.279,157.701c-3.779,7.268 -17.782,1.649 -15.489,-6.215c7.965,-27.32 50.152,-132.453 63.28,-157.701c3.779,-7.268 17.781,-1.65 15.488,6.215Z" style="fill:#ffd951;"/><path d="M689.554,624.088c9.234,29.63 35.291,150.499 39.086,181.302c1.093,8.867 -13.656,12.047 -16.314,3.517c-9.233,-29.631 -35.291,-150.499 -39.086,-181.302c-1.093,-8.868 13.656,-12.048 16.314,-3.517Z" style="fill:#ffd951;"/><path d="M473.145,715.586c21.276,22.596 97.626,119.852 114.526,145.884c4.865,7.494 -7.003,16.81 -13.127,10.305c-21.276,-22.596 -97.626,-119.852 -114.526,-145.884c-4.865,-7.494 7.002,-16.81 13.127,-10.305Z" style="fill:#ffd951;"/><path d="M334.657,879.808c28.545,12.184 137.456,70.719 163.367,87.803c7.459,4.918 0.317,18.208 -7.901,14.701c-28.544,-12.184 -137.456,-70.719 -163.367,-87.803c-7.459,-4.918 -0.316,-18.208 7.901,-14.701Z" style="fill:#ffd951;"/><path d="M275.067,1083.25c31.026,-0.79 154.415,7.151 185.084,11.912c8.829,1.37 7.86,16.427 -1.072,16.654c-31.026,0.791 -154.415,-7.15 -185.084,-11.911c-8.829,-1.371 -7.86,-16.427 1.072,-16.655Z" style="fill:#ffd951;"/></g><path id="Ocean" d="M1930.1,1236.99c-96.543,409.909 -464.958,715.405 -904.163,715.405c-469.544,-0 -858.182,-349.161 -920.212,-801.782c95.612,-6.565 199.582,-11.903 266.598,-10.087c120.493,3.264 316.032,10.085 426.293,17.611c100.344,6.85 194.446,25.842 294.883,31.16c127.949,6.773 321.05,-11.66 476.42,0.451c90.826,7.08 240.847,28.731 360.181,47.242Z" style="fill:#79ded4;"/><g id="Wave"><path id="Wave-Foam" serif:id="Wave Foam" d="M911.928,1945.46c-758.955,-131.93 -981.67,-940.437 -675.192,-1410.36c-107.595,431.206 14.127,1151.18 895.867,860.483l463.467,361.095c-19.474,15.171 -39.566,29.584 -60.234,43.193l-623.908,145.593Z" style="fill:#fff;"/><path id="Wave1" serif:id="Wave" d="M871.707,1939.63c-689.787,-115.933 -984.732,-928.884 -633.157,-1408.76c-145.474,310.49 -48.548,1167.13 799.419,911.814l494.306,333.421l-660.568,163.52Z" style="fill:#48c5bf;"/><g id="Layer1"><path d="M187.998,1234.69c140.944,279.706 266.514,348.763 700.552,319.282l103.909,19.4c-273.455,-19.645 -652.307,117.756 -804.461,-338.682Z" style="fill:#fff;"/></g></g><g><path id="Foam" d="M773.859,1917.73c219.992,-50.205 477.956,-115.533 503.328,-150.956c34.074,-47.575 -320.314,-24.285 -349.504,-62.868c-31.074,-41.073 183.724,-73.094 141.467,-103.383c-50.237,-36.009 -350.596,-47.821 -343.876,-90.753c3.779,-24.149 180.159,-52.665 201.422,-82.424c17.306,-24.22 -97.061,-26.967 -63.256,-52.556c57.088,-43.213 695.321,-46.959 1036.94,-37.513c-128.78,358.469 -471.877,615.126 -874.446,615.126c-87.354,-0 -171.908,-12.085 -252.079,-34.673Z" style="fill:#fff;"/><path id="Sand" d="M749.854,1910.61c238.726,-35.489 677.332,-105.892 696.056,-152.907c21.689,-54.461 -367.921,-41.787 -394.844,-75.349c-28.661,-35.729 130.628,-44.937 108.823,-85.217c-19.68,-36.352 -358.357,-54.169 -352.16,-91.515c3.487,-21.006 162.645,-30.612 191.246,-75.721c10.762,-16.975 -40.334,-26.532 -28.821,-29.125c132.377,-29.826 621.405,-37.108 918.482,-32.56c-136.993,342.204 -471.81,584.183 -862.698,584.183c-96.121,-0 -188.852,-14.633 -276.084,-41.789Z" style="fill:#fee3a8;"/></g><path id="Frame" d="M2012.37,740.094c27.071,105.812 39.504,174.483 39.504,283.454c0,566.232 -459.707,1025.94 -1025.94,1025.94c-566.61,-0 -1025.94,-459.329 -1025.94,-1025.94l44.606,0c0,541.976 439.357,981.334 981.332,981.334c541.612,-0 981.332,-439.721 981.332,-981.334c0,-111.319 -13.606,-184.789 -42.556,-288.839c16.93,5.164 32.076,6.754 47.658,5.385Zm-243.642,-357.573c-174.314,-195.502 -391.909,-315.088 -675.824,-338.019l3.044,-44.502c303.328,24.542 537.322,156.73 719.091,368.096c-15.807,3.81 -31.397,9.178 -46.311,14.425Zm82.386,109.606c5.063,-3.622 34.599,-28.669 34.599,-28.669c9.705,12.573 62.057,101.957 88.675,168.694c-21.829,-19.042 -46.527,-32.739 -70.07,-46.711c-28.223,-54.102 -18.439,-36.208 -53.204,-93.314Z" style="fill:#ff959b;"/><g id="Tree-1" serif:id="Tree 1"><path id="Tree-Trunk" serif:id="Tree Trunk" d="M1603.42,762.876c52.376,250.536 48.66,498.107 -10.263,703.752l-101.247,-1.833c117.05,-135.358 136.084,-477.142 82.919,-696.149l28.591,-5.77Z" style="fill:#cc8710;"/><g><ellipse cx="1582.26" cy="741.542" rx="31.897" ry="30.568" style="fill:#9dbd42;"/><ellipse cx="1573.58" cy="676.803" rx="72.937" ry="62.938" style="fill:#9dbd42;"/><path d="M1558.49,674.746c-167.138,118.838 -168.737,244.636 -106.749,373.107c20.511,-24.822 26.844,-59.293 15.25,-102.303c8.637,3.395 15.548,17.222 21.445,35.681c9.751,-26.429 7.073,-62.06 -5.649,-90.628c10.684,5.22 21.735,22.102 26.94,31.431c3.547,-22.74 0.269,-53.507 -9.026,-75.177c11.065,6.056 16.146,14.628 22.827,25.066c5.784,-20.772 3.778,-49.725 -1.14,-73.706c8.063,5.722 10.896,13.056 14.576,22.065c5.394,-20.63 6.768,-43.999 1.46,-65.699c3.868,2.762 10.08,9.763 14.496,14.716c11.515,-31.413 1.075,-66.992 5.57,-94.553Z" style="fill:#9dbd42;"/><path d="M1579.83,634.789c-224.858,3.409 -323.031,121.127 -372.542,282.754c35.481,-10.085 67.084,-38.505 90.965,-86.654c4.275,8.826 -0.863,26.377 -10.377,47.641c28.135,-18.604 53.444,-53.983 65.301,-89.233c4.501,11.882 0.313,35.011 -2.721,47.206c20.345,-19.159 41.429,-50.338 50.707,-76.845c4.161,12.919 1.611,24.318 -1.1,38.52c20.614,-15.845 41.315,-44.483 55.865,-70.324c2.023,10.65 -1.366,19.417 -5.37,30.317c20.194,-15.965 39.29,-37.132 51.771,-61.072c0.958,5.124 0.52,15.777 0.227,23.326c33.382,-22.16 52.459,-62.543 77.274,-85.636Z" style="fill:#9dbd42;"/><path d="M1589.63,624.005c-216.912,-90.821 -379.611,-25.231 -521.487,100.439c39.812,5.687 86.644,-6.848 137.638,-40.472c-1.079,9.777 -16.256,23.523 -37.79,38.804c37.775,-5.095 82.662,-26.56 114.617,-53.527c-2.649,12.639 -20.183,31.833 -30.217,41.608c30.654,-8.851 69.046,-28.277 93.42,-48.404c-3.58,13.435 -12.686,22.692 -23.585,34.42c28.972,-5.739 65.512,-23.024 94.535,-40.346c-4.296,10.489 -12.664,17.011 -22.868,25.209c28.641,-6.023 59.275,-17.213 85.21,-33.678c-2.082,5.04 -8.733,14.503 -13.429,21.216c44.87,-6.124 86.729,-34.722 123.956,-45.269Z" style="fill:#9dbd42;"/><path d="M1574.44,653.828c-66.801,-220.156 -214.359,-292.525 -392.937,-308.127c20.265,32.789 58.114,58.021 113.886,71.638c-7.787,6.002 -27.112,4.542 -51.451,-0.457c26.874,23.832 70.039,41.461 109.285,45.903c-10.835,6.849 -35.575,7.462 -48.851,6.974c25.246,16.068 62.943,30.405 92.556,34.101c-11.987,6.727 -24.316,6.551 -39.547,6.791c21.946,17.009 56.948,31.489 87.367,40.499c-10.279,4.164 -20.163,2.627 -32.394,0.921c21.949,16.572 48.888,31.003 76.789,38.369c-4.949,1.988 -15.924,3.735 -23.696,4.99c31.974,28.259 78.481,38.744 108.993,58.398Z" style="fill:#9dbd42;"/><path d="M1586.63,680.772c60.552,-227.025 -29.512,-362.586 -177.431,-463.016c0.015,38.816 19.51,79.485 60.978,118.579c-10.063,1.528 -26.193,-9.138 -44.8,-25.366c10.643,34.106 38.905,70.631 70.864,93.599c-13.19,0.797 -35.182,-10.664 -46.542,-17.536c13.416,26.452 38.669,57.415 62.599,75.049c-14.133,0.131 -24.833,-6.006 -38.298,-13.183c10.019,25.683 32.834,55.464 54.596,78.187c-11.251,-1.306 -19.074,-7.46 -28.86,-14.902c10.257,25.298 26.041,51.124 46.486,71.172c-5.408,-0.643 -15.962,-4.424 -23.445,-7.085c12.715,40.493 47.765,72.325 63.853,104.502Z" style="fill:#9dbd42;"/><path d="M1605.17,650.567c200.315,135.387 213.505,293.042 154.816,459.249c-25.508,-29.457 -35.808,-72.175 -26.548,-127.069c-9.489,4.965 -16.077,22.872 -21.096,46.507c-13.45,-32.352 -13.635,-77.261 -1.788,-114.134c-11.646,7.421 -22.654,29.5 -27.713,41.626c-6.08,-28.232 -5.145,-67.091 3.438,-95.031c-12.002,8.501 -16.989,19.668 -23.623,33.307c-8.439,-25.581 -8.782,-62.06 -5.373,-92.542c-8.628,7.837 -11.178,17.267 -14.536,28.868c-7.984,-25.435 -11.656,-54.633 -7.599,-82.285c-4.137,3.78 -10.549,13.07 -15.11,19.643c-15.901,-38.459 -7.277,-83.938 -14.868,-118.139Z" style="fill:#9dbd42;"/><path d="M1594.27,648.858c256.09,10.55 350.506,143.772 382.82,324.115c-38.981,-12.229 -70.792,-44.63 -90.839,-98.63c-6.199,9.638 -2.962,29.214 4.713,53.031c-29.323,-21.435 -52.911,-61.347 -61.166,-100.711c-6.915,13.012 -5.596,38.733 -3.959,52.318c-20.35,-21.814 -39.745,-56.951 -46.366,-86.562c-6.681,14.17 -5.477,26.861 -4.509,42.658c-21.153,-18.155 -40.491,-50.469 -53.227,-79.502c-3.903,11.724 -1.348,21.527 1.591,33.71c-20.656,-18.275 -39.28,-42.273 -49.94,-69.141c-1.861,5.641 -2.955,17.443 -3.751,25.805c-34.777,-25.528 -50.505,-70.789 -75.367,-97.091Z" style="fill:#9dbd42;"/><path d="M1543.85,650.61c208.239,-124.015 355.778,-68.425 479.999,56.155c-37.509,10.556 -80.387,1.606 -125.783,-30.34c0.373,10.752 13.643,24.415 32.742,39.108c-34.911,-1.645 -75.397,-20.726 -103.462,-47.298c1.653,13.765 16.769,33.232 25.496,43.029c-28.024,-6.576 -62.583,-24.083 -84.019,-43.859c2.47,14.551 10.366,23.87 19.775,35.745c-26.657,-3.296 -59.627,-18.62 -85.581,-34.784c3.329,11.2 10.713,17.56 19.702,25.585c-26.33,-3.647 -54.185,-12.826 -77.314,-28.366c1.617,5.38 7.208,15.19 11.155,22.152c-41.463,-2.034 -78.662,-29.365 -112.71,-37.127Z" style="fill:#9dbd42;"/><path d="M1563.13,685.448c46.366,-205.72 175.353,-278.557 336.075,-300.35c-16.248,31.066 -48.906,55.898 -98.539,70.765c7.437,5.209 24.844,3.062 46.565,-2.557c-22.808,23.085 -60.768,41.127 -96.024,46.851c10.252,5.864 32.696,5.402 44.687,4.401c-21.831,15.86 -55.05,30.641 -81.631,35.277c11.287,5.703 22.442,5.03 36.25,4.619c-18.783,16.59 -49.551,31.391 -76.521,40.959c9.575,3.412 18.428,1.585 29.395,-0.495c-18.814,16.187 -42.284,30.608 -67.079,38.557c4.61,1.627 14.661,2.782 21.78,3.617c-27.143,27.376 -68.588,38.972 -94.958,58.356Z" style="fill:#9dbd42;"/></g></g><g id="Tree-2" serif:id="Tree 2"><path id="Tree-Trunk1" serif:id="Tree Trunk" d="M1762.41,1269.29c-29.205,84.576 -58.366,140.001 -111.393,192.525l-44.054,1.61c57.216,-21.595 122.854,-121.972 146.28,-197.128l9.167,2.993Z" style="fill:#cc8710;"/><g><path d="M1764.99,1250.99c5.019,2.919 6.823,9.193 4.026,14.003c-2.798,4.81 -9.143,6.345 -14.162,3.426c-5.019,-2.918 -6.823,-9.193 -4.025,-14.003c2.797,-4.81 9.143,-6.345 14.161,-3.426Z" style="fill:#9dbd42;"/><path d="M1778.62,1221.86c11.477,6.675 16.118,20.134 10.359,30.037c-5.759,9.903 -19.753,12.524 -31.229,5.85c-11.476,-6.675 -16.118,-20.134 -10.358,-30.037c5.759,-9.903 19.752,-12.524 31.228,-5.85Z" style="fill:#9dbd42;"/><path d="M1764.22,1236.72c-67.354,6.168 -88.667,41.767 -92.296,88.671c9.964,-3.676 17.484,-12.454 21.31,-26.638c1.9,2.4 1.577,7.488 0.198,13.728c7.162,-5.918 12.306,-16.52 13.416,-26.774c2.18,3.26 2.532,9.905 2.469,13.428c4.781,-5.895 8.948,-15.21 9.891,-22.929c2.151,3.561 2.178,6.847 2.352,10.931c5.093,-4.963 9.322,-13.55 11.896,-21.202c1.35,2.968 0.941,5.528 0.497,8.707c4.958,-4.987 9.224,-11.422 11.309,-18.488c0.645,1.428 1.255,4.455 1.693,6.599c8.491,-7.047 11.414,-18.921 17.265,-26.033Z" style="fill:#9dbd42;"/><path d="M1776.93,1228.86c-64.671,-36.311 -112.177,-19.027 -153.091,18.842c11.788,3.008 25.51,0.146 40.301,-9.622c-0.245,3.225 -4.619,7.377 -10.857,11.862c11.106,-0.639 24.187,-6.529 33.412,-14.613c-0.687,4.134 -5.716,10.033 -8.603,13.007c8.977,-2.089 20.157,-7.482 27.197,-13.501c-0.955,4.373 -3.572,7.2 -6.7,10.8c8.504,-1.1 19.154,-5.832 27.587,-10.787c-1.189,3.372 -3.609,5.31 -6.558,7.753c8.404,-1.203 17.358,-4.071 24.885,-8.827c-0.576,1.62 -2.467,4.584 -3.802,6.688c13.191,-0.783 25.325,-9.133 36.229,-11.602Z" style="fill:#9dbd42;"/><path d="M1781.51,1227.41c-46.782,-61.857 -104.041,-70.134 -165.325,-57.829c10.407,8.222 25.837,12.413 45.95,11.282c-1.929,2.609 -8.535,4.011 -17.208,4.797c11.614,4.811 27.97,6.134 41.552,3.744c-2.851,3.164 -11.033,5.729 -15.514,6.852c10.207,2.559 24.373,3.386 34.659,1.69c-3.248,3.236 -7.379,4.366 -12.431,5.902c9.212,3.167 22.495,4.298 33.641,4.172c-2.964,2.278 -6.431,2.75 -10.699,3.395c9.164,3.032 19.753,4.921 29.876,4.527c-1.429,1.091 -4.894,2.687 -7.346,3.822c13.808,5.693 30.483,4.481 42.845,7.646Z" style="fill:#9dbd42;"/><path d="M1772.23,1233.4c17.458,-73.841 -12.611,-118.938 -60.935,-152.995c0.341,12.708 6.947,26.177 20.59,39.306c-3.215,0.42 -8.483,-3.2 -14.593,-8.661c3.711,11.251 13.094,23.433 23.546,31.207c-4.225,0.156 -11.379,-3.771 -15.083,-6.112c4.533,8.767 12.903,19.105 20.733,25.068c-4.533,-0.069 -8.019,-2.164 -12.401,-4.62c3.437,8.487 11.014,18.419 18.193,26.031c-3.621,-0.517 -6.184,-2.594 -9.388,-5.108c3.51,8.363 8.797,16.944 15.53,23.67c-1.741,-0.254 -5.159,-1.575 -7.583,-2.506c4.43,13.358 15.951,24.058 21.391,34.72Z" style="fill:#9dbd42;"/><path d="M1771.24,1243.1c54.905,-54.684 51.704,-108.264 26.185,-161.421c-6.431,11.068 -7.616,25.895 -2.276,43.916c-3.122,-1.233 -5.952,-6.948 -8.566,-14.66c-2.621,11.488 -0.62,26.587 4.684,38.434c-3.893,-1.959 -8.263,-8.873 -10.362,-12.716c-0.561,9.766 1.505,22.78 5.403,31.775c-4.05,-2.306 -6.083,-5.83 -8.732,-10.108c-1.402,8.983 0.164,21.256 2.601,31.342c-2.991,-2.237 -4.201,-5.289 -5.757,-9.033c-1.27,8.913 -1.052,18.893 1.452,27.998c-1.435,-1.08 -3.817,-3.908 -5.509,-5.907c-3.089,13.653 1.626,28.539 0.877,40.38Z" style="fill:#9dbd42;"/><path d="M1781.54,1237.56c34.661,71.811 12.282,118.944 -32.008,156.597c-2.388,-12.627 1.758,-26.513 13.5,-40.628c-3.528,-0.158 -8.376,3.855 -13.725,9.761c1.529,-11.453 8.923,-24.287 18.414,-32.835c-4.551,0.185 -11.35,4.654 -14.803,7.272c2.948,-9.057 9.657,-19.98 16.737,-26.522c-4.831,0.433 -8.105,2.79 -12.257,5.578c1.835,-8.692 7.786,-19.148 13.811,-27.273c-3.759,0.803 -6.049,3.069 -8.93,5.82c1.941,-8.575 5.735,-17.509 11.477,-24.719c-1.806,0.392 -5.175,1.977 -7.565,3.095c1.843,-13.601 11.843,-25.137 15.349,-36.146Z" style="fill:#9dbd42;"/><path d="M1778.71,1235.27c71.26,45.468 76.088,99.103 55.4,155.875c-9.086,-9.949 -12.783,-24.461 -9.545,-43.18c-3.365,1.72 -5.688,7.837 -7.449,15.9c-4.806,-10.973 -4.913,-26.262 -0.74,-38.853c-4.129,2.563 -8.017,10.114 -9.803,14.259c-2.185,-9.593 -1.888,-22.826 1.134,-32.366c-4.254,2.932 -6.015,6.75 -8.359,11.414c-3.02,-8.683 -3.175,-21.102 -1.993,-31.491c-3.056,2.696 -3.953,5.914 -5.135,9.874c-2.859,-8.634 -4.19,-18.564 -2.774,-27.991c-1.466,1.3 -3.734,4.483 -5.348,6.735c-5.682,-13.044 -2.661,-28.556 -5.388,-40.176Z" style="fill:#9dbd42;"/><path d="M1764.05,1227.41c79.929,-0.83 112.775,39.481 127.534,95.594c-12.444,-3.21 -23.185,-12.871 -30.83,-29.505c-1.676,3.127 -0.159,9.222 2.851,16.578c-9.681,-6.257 -18.059,-18.41 -21.655,-30.639c-1.811,4.199 -0.729,12.255 0.135,16.495c-6.899,-6.521 -13.849,-17.242 -16.682,-26.435c-1.708,4.559 -1.002,8.525 -0.289,13.47c-7.053,-5.359 -13.911,-15.195 -18.631,-24.106c-0.908,3.745 0.143,6.782 1.375,10.56c-6.902,-5.405 -13.321,-12.64 -17.338,-20.905c-0.432,1.802 -0.464,5.526 -0.493,8.165c-11.484,-7.455 -17.557,-21.415 -25.977,-29.272Z" style="fill:#9dbd42;"/><path d="M1763.77,1240.54c47.328,-50.962 96.177,-50.34 145.612,-29.905c-9.784,6.162 -23.211,7.827 -39.826,3.836c1.256,2.718 6.575,4.992 13.699,6.992c-10.33,2.799 -24.143,1.649 -35.144,-2.564c1.951,3.371 8.426,6.961 12.011,8.664c-8.854,0.901 -20.775,-0.392 -29.122,-3.478c2.272,3.498 5.564,5.155 9.569,7.327c-8.106,1.616 -19.332,0.734 -28.607,-1.01c2.164,2.561 4.991,3.507 8.463,4.733c-8.048,1.495 -17.13,1.715 -25.517,-0.13c1.045,1.228 3.719,3.224 5.61,4.642c-12.278,3.305 -26.016,-0.261 -36.748,0.893Z" style="fill:#9dbd42;"/></g></g><path id="Airplane" d="M145.912,353.841c-0,0 22.365,-33.412 39.305,-32.369c37.572,2.312 186.124,46.242 186.124,46.242l184.968,-109.825l-307.509,-144.506c0,-0 27.799,-28.947 45.086,-26.589c55.105,7.514 285.544,71.675 285.544,71.675l33.526,-18.497l22.593,23.5l-15.113,8.683l67.986,19.654c0,0 208.913,-122.929 260.944,-84.206c50.711,37.74 -182.656,171.095 -182.656,171.095l12.096,46.226l10.997,-7.485l19.736,25.378l-22.02,15.648c0,0 22.928,124.083 23.121,151.443c0.06,8.46 -21.965,12.716 -21.965,12.716l-123.697,-184.968l-264.735,97.108c-0,0 9.248,97.687 5.78,119.074c-1.502,9.262 -26.589,9.248 -26.589,9.248l-64.739,-104.045l-105.201,16.185l68.207,-57.802l-131.789,-63.583Zm697.376,-228.533c-3.893,2.436 -4.444,8.585 -1.23,13.722c3.215,5.138 8.985,7.332 12.879,4.896c3.893,-2.436 4.444,-8.585 1.229,-13.722c-3.214,-5.138 -8.985,-7.332 -12.878,-4.896Zm-29.721,11.75c-3.893,2.436 -4.444,8.585 -1.229,13.723c3.214,5.137 8.985,7.331 12.878,4.895c3.893,-2.436 4.444,-8.584 1.23,-13.722c-3.215,-5.138 -8.985,-7.332 -12.879,-4.896Z" style="fill:#ff959b;"/><path d="M1461.86,1511.01c-9.617,-133.53 106.934,-64.62 125.72,-5.781l-125.72,5.781Z" style="fill:#7e8686;"/><path d="M1664.58,1534.49c11.543,-158.633 -128.348,-76.768 -150.896,-6.867l150.896,6.867Z" style="fill:#92a3a3;"/><path d="M1530.04,1565.45c-24.224,-62.521 -73.401,-47.396 -94.114,-3.885l94.114,3.885Z" style="fill:#92a3a3;"/><path d="M200.625,499.697c3.698,-4.474 10.333,-5.105 14.807,-1.407c4.474,3.698 5.105,10.332 1.407,14.807c-4.529,5.479 -8.97,10.961 -13.325,16.445c-3.609,4.546 -10.23,5.306 -14.776,1.697c-4.546,-3.61 -5.306,-10.231 -1.697,-14.776c4.439,-5.591 8.967,-11.18 13.584,-16.766Zm-39.735,51.128c3.417,-4.692 10.001,-5.728 14.693,-2.311c4.693,3.417 5.728,10.001 2.311,14.693c-8.418,11.561 -16.454,23.132 -24.111,34.715c-3.201,4.842 -9.731,6.174 -14.573,2.973c-4.842,-3.201 -6.174,-9.731 -2.973,-14.573c7.829,-11.843 16.046,-23.675 24.653,-35.497Zm-47.628,72.149c2.96,-4.993 9.417,-6.644 14.41,-3.684c4.993,2.959 6.644,9.416 3.685,14.409c-7.272,12.267 -14.122,24.546 -20.554,36.838c-2.692,5.143 -9.052,7.133 -14.195,4.442c-5.143,-2.691 -7.133,-9.052 -4.442,-14.195c6.603,-12.616 13.633,-25.219 21.096,-37.81Zm-40.103,76.758c2.395,-5.288 8.632,-7.636 13.919,-5.242c5.288,2.395 7.636,8.632 5.241,13.92c-5.859,12.937 -11.261,25.889 -16.21,38.855c-2.07,5.423 -8.153,8.145 -13.576,6.076c-5.423,-2.07 -8.146,-8.153 -6.076,-13.576c5.099,-13.36 10.665,-26.704 16.702,-40.033Zm-30.885,81.063c1.718,-5.544 7.614,-8.65 13.158,-6.932c5.545,1.718 8.651,7.614 6.933,13.158c-4.183,13.498 -7.88,27.012 -11.098,40.542c-1.343,5.647 -7.018,9.141 -12.665,7.799c-5.647,-1.343 -9.141,-7.018 -7.798,-12.665c3.325,-13.984 7.147,-27.951 11.47,-41.902Zm-20.063,84.509c0.949,-5.727 6.369,-9.605 12.095,-8.656c5.727,0.949 9.605,6.369 8.656,12.095c-2.298,13.865 -4.099,27.748 -5.408,41.648c-0.544,5.778 -5.678,10.029 -11.457,9.485c-5.778,-0.545 -10.029,-5.678 -9.485,-11.457c1.355,-14.39 3.22,-28.762 5.599,-43.115Zm-8.143,86.519c0.135,-5.803 4.956,-10.404 10.759,-10.269c5.803,0.135 10.405,4.957 10.269,10.76c-0.163,6.996 -0.203,13.997 -0.122,21.003c0.068,5.804 -4.589,10.571 -10.393,10.639c-5.804,0.068 -10.571,-4.589 -10.639,-10.393c-0.085,-7.252 -0.043,-14.498 0.126,-21.74Z" style="fill:#ff959b;"/><path d="M395.143,1623.64c145.592,41.956 362.724,37.877 516.948,18.793c-186.417,50.058 -398.974,47.063 -516.948,-18.793Z" style="fill:#fff;"/></svg>